PathFileType  4	(X/Y/Z) C:\Users\antoi\Documents\MyRepositories\mobilecap\ResultsAnalysis
DataRate	CameraRate	NumFrames	NumMarkers	Units	OrigDataRate	OrigDataStartFrame	OrigNumFrames
100.0	100.0	4	51	mm	100.0	79	157
Frame#	Time	r_knee			r_shank_antsup			r_ankle			r_calc			r_5meta			r_toe			L_knee			L_shank_antsup			L_ankle			L_calc			L_5meta			L_toe			r_sh2			r_sh3			r_sh4			L_sh2			L_sh3			r_thigh1			r_thigh2			r_thigh3			r_thigh4			r_thigh5			L_thigh1			L_thigh2			L_thigh3			L_thigh4			r.ASIS			r.PSIS			L.ASIS			L.PSIS			C7			R_Shoulder			L_Shoulder			R_Sternum			L_Sternum			R_humerus			R_elbow_med			R_elbow_lat			R_forearm			R_wrist_radius			R_wrist_ulna			L_humerus			L_elbow_med			L_elbow_lat			L_forearm			L_wrist_radius			L_wrist_ulna			R_HJC			L_HJC			R_HJC_reg			L_HJC_reg			
		X1	Y1	Z1	X2	Y2	Z2	X3	Y3	Z3	X4	Y4	Z4	X5	Y5	Z5	X6	Y6	Z6	X7	Y7	Z7	X8	Y8	Z8	X9	Y9	Z9	X10	Y10	Z10	X11	Y11	Z11	X12	Y12	Z12	X13	Y13	Z13	X14	Y14	Z14	X15	Y15	Z15	X16	Y16	Z16	X17	Y17	Z17	X18	Y18	Z18	X19	Y19	Z19	X20	Y20	Z20	X21	Y21	Z21	X22	Y22	Z22	X23	Y23	Z23	X24	Y24	Z24	X25	Y25	Z25	X26	Y26	Z26	X27	Y27	Z27	X28	Y28	Z28	X29	Y29	Z29	X30	Y30	Z30	X31	Y31	Z31	X32	Y32	Z32	X33	Y33	Z33	X34	Y34	Z34	X35	Y35	Z35	X36	Y36	Z36	X37	Y37	Z37	X38	Y38	Z38	X39	Y39	Z39	X40	Y40	Z40	X41	Y41	Z41	X42	Y42	Z42	X43	Y43	Z43	X44	Y44	Z44	X45	Y45	Z45	X46	Y46	Z46	X47	Y47	Z47	X48	Y48	Z48	X49	Y49	Z49	X50	Y50	Z50	X51	Y51	Z51	

79	0.78000000	630.68589	450.11168	-49.02798	631.73784	384.04118	-57.23685	306.59798	208.95175	-92.15949	244.78020	233.04477	-143.63152	344.96126	55.36768	-59.39256	390.48227	58.70831	-110.90667	850.20183	491.65438	-356.58846	883.44880	407.02047	-364.95520	817.98458	92.52015	-324.20807	755.80620	59.52824	-273.23825	938.10517	41.60130	-350.17507	979.61117	60.30475	-296.10034	539.33508	310.89140	-72.89993	579.55700	435.47836	-22.42061	490.59375	362.31325	-25.64754	795.81314	417.03509	-383.07985	791.10758	295.61184	-376.70538	779.76028	725.01926	-100.48560	774.21431	614.17331	-92.96137	743.90800	596.83048	-34.36482	703.54454	731.50197	-16.66125	695.13001	618.51090	-14.59088	800.99153	813.56690	-373.95709	842.54585	677.74901	-381.15049	693.44881	781.35324	-388.31451	733.93551	649.81332	-377.01527	783.65039	923.53636	-73.58239	597.85098	962.79088	-147.09853	802.99728	929.67246	-306.70409	598.56816	969.64695	-244.14591	647.98764	1414.48077	-317.17862	740.59622	1421.12375	-159.59573	679.76381	1302.58411	-460.32684	760.06282	1319.63163	-286.56841	752.94554	1304.10041	-322.26080	752.12817	1209.53884	-22.53664	674.87973	1127.21070	-4.29363	728.07297	1131.43982	29.55064	785.83309	997.54484	35.06483	807.60627	894.34754	18.94445	796.77496	898.25891	62.10874	647.92251	1059.92173	-479.58732	616.75701	971.34073	-404.58767	614.75029	968.01518	-463.15321	660.34579	829.16619	-481.74665	699.37268	727.92580	-464.35422	656.47723	719.34824	-466.56375	713.18031	843.93209	-111.83471	709.00403	861.64129	-301.63337	721.39463	851.41875	-111.25541	722.53505	862.29854	-265.30828	
80	0.79000000	651.64739	450.21271	-49.41162	652.14101	383.93992	-57.65764	322.44427	218.20910	-93.31168	262.43588	244.34729	-145.98123	353.86378	62.85530	-58.67152	400.27127	63.67301	-109.38712	854.85377	491.23713	-356.99475	887.20255	406.33689	-365.64701	818.14006	92.39437	-324.15710	755.85080	59.60780	-273.24175	938.11950	41.50906	-350.21788	979.71738	60.18506	-296.12357	558.13271	312.85183	-73.39427	600.99493	436.54259	-23.00326	510.18751	365.51184	-25.99261	799.48270	417.43393	-383.01017	793.22926	296.09602	-376.62770	792.86509	728.14792	-101.20040	790.54099	616.96257	-93.23601	760.01332	599.24563	-34.50760	716.08456	732.83280	-17.84913	710.49518	619.79342	-15.17698	809.90753	813.87238	-375.03884	849.69853	677.56291	-382.24776	701.98736	782.95892	-389.25755	740.27722	651.24230	-376.81323	793.18713	925.82238	-74.95589	607.52645	964.71609	-149.07344	813.01358	930.80852	-307.96071	608.36013	971.83189	-246.24875	658.56309	1416.47426	-319.46934	750.93363	1423.39403	-161.99759	690.17823	1304.46599	-462.42316	770.47254	1321.53405	-288.44585	763.35118	1306.00005	-324.03196	762.29386	1212.10984	-24.69910	684.48942	1130.45771	-5.26167	738.33456	1134.31789	27.95667	795.04509	999.82071	32.81336	814.78886	896.08131	16.61286	805.78495	900.52871	60.23218	659.39709	1061.58394	-480.96100	629.70002	973.00621	-405.45929	627.11368	969.47064	-463.97842	674.03480	831.05097	-482.60994	714.62589	730.36701	-465.75345	671.72008	721.14186	-466.90531	722.56141	846.09482	-113.08083	718.87487	863.08918	-302.95534	731.25739	852.75691	-112.89312	732.57907	864.02782	-266.84785	
81	0.80000000	672.63331	450.90827	-49.81547	672.62181	384.46490	-58.01162	339.20374	226.82155	-94.57087	280.77870	254.05734	-148.49451	365.34456	70.70794	-57.60012	412.41821	69.23467	-107.64891	858.89770	490.91038	-357.52581	890.40662	405.77287	-366.43172	818.25019	92.32001	-324.17652	755.89121	59.68211	-273.25599	938.13559	41.41802	-350.26732	979.79626	60.10901	-296.17641	577.40129	315.18792	-73.84734	622.25555	438.14341	-23.80761	529.92084	369.01193	-26.62924	802.61739	417.82444	-383.10471	794.98524	296.58096	-376.70589	805.87588	731.63781	-101.85061	806.85957	620.15369	-93.47504	775.95051	602.04104	-34.59582	728.46758	734.46126	-19.00478	725.78121	621.47345	-15.69193	818.43059	814.21828	-376.09421	856.32074	677.42492	-383.36887	710.12447	784.72316	-390.20754	746.04965	652.81227	-376.58362	802.52571	928.15920	-76.35200	616.96526	966.76230	-150.94872	822.73011	931.95063	-309.27481	617.97312	974.04400	-248.24045	669.04902	1418.66420	-321.54648	760.95357	1425.71762	-164.05189	700.71670	1306.78736	-464.42057	780.73906	1323.61470	-290.12452	773.59482	1308.09846	-325.62723	771.94480	1214.69540	-26.35462	693.83346	1133.48003	-6.26385	748.09509	1137.10693	26.55456	804.15749	1002.21742	30.76526	822.31464	898.08217	14.47301	814.91902	902.92073	58.44968	670.80293	1063.71084	-482.44904	642.30354	975.16899	-406.49581	639.30761	971.38729	-464.95983	687.69996	833.42540	-483.48743	729.94043	733.37874	-467.03711	686.94195	723.53847	-467.30056	731.72918	848.32392	-114.28110	728.43123	864.56010	-304.23097	740.78074	854.23994	-114.52878	742.37479	865.75632	-268.41500	
82	0.81000000	693.52875	452.24428	-50.19397	693.11671	385.66331	-58.24675	356.90356	234.51912	-95.82952	299.67575	262.06657	-150.91273	379.48744	78.42428	-56.32749	426.95765	74.99937	-105.90630	862.47371	490.68545	-358.20248	893.19507	405.30093	-367.28503	818.32670	92.30158	-324.26573	755.92892	59.75222	-273.27873	938.15365	41.33517	-350.32484	979.84900	60.06881	-296.25683	597.03082	317.85639	-74.22412	643.24194	440.33879	-24.83091	549.71715	372.80522	-27.59826	805.37190	418.18665	-383.43158	796.52243	297.04585	-376.98728	818.72994	735.45966	-102.48402	822.99930	623.74406	-93.72995	791.73133	605.21389	-34.66932	740.73900	736.41204	-20.09694	741.06277	623.59965	-16.12894	826.62623	814.58693	-377.15406	862.48913	677.31267	-384.52764	717.91937	786.61638	-391.13917	751.42615	654.49294	-376.38617	811.70713	930.54848	-77.77795	626.19552	968.90865	-152.70276	832.17774	933.11789	-310.65745	627.42353	976.24522	-250.10594	679.44417	1421.00290	-323.44180	770.70307	1428.05703	-165.78753	711.38511	1309.43012	-466.32532	790.89950	1325.84642	-291.64212	783.64991	1310.32932	-327.09539	781.10081	1217.26539	-27.55841	702.90909	1136.25165	-7.34546	757.36205	1139.76830	25.30438	813.11349	1004.67313	28.96623	830.16803	900.27617	12.58513	824.02751	905.36927	56.81249	682.22549	1066.18258	-484.05654	654.55536	977.69138	-407.74194	651.36798	973.64323	-466.14627	701.36464	836.16685	-484.42331	745.27176	736.85792	-468.21462	702.16568	726.39883	-467.79912	740.74207	850.61157	-115.43666	737.70922	866.05172	-305.45909	750.01123	855.88788	-116.14806	751.95028	867.47649	-270.00045	
